<?xml version="1.0" encoding="UTF-8" standalone="no"?>
<svg xmlns="http://www.w3.org/2000/svg"
     xmlns:svg="http://www.w3.org/2000/svg"
     version="1.1"
     width="3.33333in" height="3.33333in"
     viewBox="0 0 1000 1000">
  <defs>
  </defs>
  <path id="vector0"
        fill="#000000"
        stroke="#FFFFFF"
        opacity="1.000000"
        stroke-width="6.000000"
        stroke-linecap="butt"
        stroke-linejoin="miter"
        stroke-miterlimit="10.000000"
        d="M 190.00,322.00
           C 201.76,321.04 210.57,315.03 229.00,315.00
             229.00,315.00 909.00,315.00 909.00,315.00
             909.00,315.00 909.00,379.00 909.00,379.00
             909.00,382.65 909.95,396.84 907.43,398.83
             905.62,400.25 901.26,400.00 899.00,400.00
             899.00,400.00 790.00,400.00 790.00,400.00
             790.00,400.00 790.00,583.00 790.00,583.00
             790.00,583.00 790.00,631.00 790.00,631.00
             789.86,638.49 787.74,637.99 781.00,638.00
             781.00,638.00 710.00,638.00 710.00,638.00
             710.00,638.00 697.00,638.00 697.00,638.00
             694.67,637.99 690.60,638.25 688.99,636.26
             687.75,634.72 688.00,630.94 688.00,629.00
             688.00,629.00 688.00,475.00 688.00,475.00
             688.00,475.00 688.00,427.00 688.00,427.00
             688.00,419.39 687.31,406.96 689.00,400.00
             689.00,400.00 404.00,400.00 404.00,400.00
             404.00,400.00 251.00,400.00 251.00,400.00
             239.06,400.02 240.43,403.46 231.00,405.00
             231.00,405.00 232.00,407.00 232.00,407.00
             227.03,409.40 222.99,414.62 221.55,420.04
             221.55,420.04 221.00,452.00 221.00,452.00
             221.00,452.00 221.00,524.00 221.00,524.00
             221.07,539.75 227.93,547.30 242.83,551.15
             249.15,552.78 246.50,552.99 254.00,553.00
             254.00,553.00 406.00,553.00 406.00,553.00
             404.10,546.32 405.00,520.63 405.00,512.00
             405.00,512.00 318.00,512.00 318.00,512.00
             310.49,511.88 310.04,510.05 310.00,503.00
             310.00,503.00 310.00,450.00 310.00,450.00
             310.05,442.03 311.18,442.01 320.00,442.00
             320.00,442.00 463.00,442.00 463.00,442.00
             463.00,442.00 494.00,442.00 494.00,442.00
             496.54,442.00 503.55,441.56 505.40,443.02
             507.38,444.59 507.00,448.70 507.00,451.00
             507.00,451.00 507.00,594.00 507.00,594.00
             507.00,594.00 507.00,625.00 507.00,625.00
             507.00,627.48 507.45,634.47 506.01,636.26
             504.30,638.38 499.50,638.00 497.00,638.00
             497.00,638.00 237.00,638.00 237.00,638.00
             237.00,638.00 225.00,637.09 225.00,637.09
             212.86,636.24 204.32,635.26 192.96,630.38
             192.96,630.38 178.42,624.45 178.42,624.45
             160.99,615.18 143.11,600.48 132.36,583.82
             132.36,583.82 128.40,576.30 128.40,576.30
             128.40,576.30 125.68,571.54 125.68,571.54
             118.26,554.43 120.00,531.46 120.00,513.00
             120.00,513.00 120.00,411.00 120.00,411.00
             120.10,390.56 126.76,375.51 139.48,359.80
             142.64,355.91 142.74,355.02 146.76,351.12
             146.76,351.12 159.00,341.14 159.00,341.14
             166.67,334.88 181.18,325.28 191.00,324.00
             191.00,324.00 190.00,322.00 190.00,322.00 Z
           M 544.00,442.00
           C 544.00,442.00 645.00,442.00 645.00,442.00
             645.00,442.00 645.00,638.00 645.00,638.00
             645.00,638.00 544.00,638.00 544.00,638.00
             544.00,638.00 544.00,442.00 544.00,442.00 Z" />
</svg>
